<svg width="224" height="50" viewBox="0 0 224 50" fill="none" xmlns="http://www.w3.org/2000/svg">
<path d="M73.24 12.8V17.3H65.572V38H61.09V17.3H53.44V12.8H73.24ZM82.0136 38.468C80.3576 38.468 78.8456 38.042 77.4776 37.19C76.1216 36.338 75.0356 35.198 74.2196 33.77C73.4156 32.33 73.0136 30.74 73.0136 29C73.0136 27.248 73.4156 25.652 74.2196 24.212C75.0356 22.772 76.1216 21.626 77.4776 20.774C78.8456 19.922 80.3576 19.496 82.0136 19.496C83.6696 19.496 85.1756 19.922 86.5316 20.774C87.8996 21.626 88.9856 22.772 89.7896 24.212C90.6056 25.652 91.0136 27.248 91.0136 29C91.0136 30.74 90.6056 32.33 89.7896 33.77C88.9856 35.198 87.8996 36.338 86.5316 37.19C85.1756 38.042 83.6696 38.468 82.0136 38.468ZM82.0136 33.968C82.8656 33.968 83.6276 33.74 84.2996 33.284C84.9836 32.828 85.5236 32.222 85.9196 31.466C86.3156 30.71 86.5136 29.888 86.5136 29C86.5136 28.088 86.3096 27.254 85.9016 26.498C85.4936 25.73 84.9476 25.124 84.2636 24.68C83.5916 24.224 82.8416 23.996 82.0136 23.996C81.1616 23.996 80.3936 24.23 79.7096 24.698C79.0376 25.154 78.5036 25.76 78.1076 26.516C77.7116 27.272 77.5136 28.1 77.5136 29C77.5136 29.936 77.7176 30.782 78.1256 31.538C78.5336 32.282 79.0796 32.876 79.7636 33.32C80.4476 33.752 81.1976 33.968 82.0136 33.968ZM94.2381 24.95H105.758V29.45H94.2381V24.95ZM110.094 38V12.8H118.446C120.186 12.8 121.812 13.13 123.324 13.79C124.848 14.438 126.186 15.344 127.338 16.508C128.502 17.66 129.408 18.998 130.056 20.522C130.716 22.034 131.046 23.66 131.046 25.4C131.046 27.14 130.716 28.772 130.056 30.296C129.408 31.808 128.502 33.146 127.338 34.31C126.186 35.462 124.848 36.368 123.324 37.028C121.812 37.676 120.186 38 118.446 38H110.094ZM114.594 33.5H118.446C119.91 33.5 121.254 33.14 122.478 32.42C123.714 31.688 124.698 30.71 125.43 29.486C126.174 28.262 126.546 26.9 126.546 25.4C126.546 23.912 126.174 22.556 125.43 21.332C124.698 20.096 123.72 19.118 122.496 18.398C121.272 17.666 119.922 17.3 118.446 17.3H114.594V33.5ZM141.639 38.468C139.983 38.468 138.471 38.042 137.103 37.19C135.747 36.338 134.661 35.198 133.845 33.77C133.041 32.33 132.639 30.74 132.639 29C132.639 27.248 133.041 25.652 133.845 24.212C134.661 22.772 135.747 21.626 137.103 20.774C138.471 19.922 139.983 19.496 141.639 19.496C143.295 19.496 144.801 19.922 146.157 20.774C147.525 21.626 148.611 22.772 149.415 24.212C150.231 25.652 150.639 27.248 150.639 29C150.639 30.74 150.231 32.33 149.415 33.77C148.611 35.198 147.525 36.338 146.157 37.19C144.801 38.042 143.295 38.468 141.639 38.468ZM141.639 33.968C142.491 33.968 143.253 33.74 143.925 33.284C144.609 32.828 145.149 32.222 145.545 31.466C145.941 30.71 146.139 29.888 146.139 29C146.139 28.088 145.935 27.254 145.527 26.498C145.119 25.73 144.573 25.124 143.889 24.68C143.217 24.224 142.467 23.996 141.639 23.996C140.787 23.996 140.019 24.23 139.335 24.698C138.663 25.154 138.129 25.76 137.733 26.516C137.337 27.272 137.139 28.1 137.139 29C137.139 29.936 137.343 30.782 137.751 31.538C138.159 32.282 138.705 32.876 139.389 33.32C140.073 33.752 140.823 33.968 141.639 33.968ZM153.863 24.95H165.383V29.45H153.863V24.95ZM169.719 38V12.8H174.219V33.5H184.641V38H169.719ZM188.598 20H193.098V38H188.598V20ZM190.866 17.732C190.206 17.732 189.648 17.516 189.192 17.084C188.748 16.64 188.526 16.088 188.526 15.428C188.526 14.78 188.748 14.234 189.192 13.79C189.648 13.346 190.206 13.124 190.866 13.124C191.502 13.124 192.042 13.346 192.486 13.79C192.942 14.234 193.17 14.78 193.17 15.428C193.17 16.088 192.948 16.64 192.504 17.084C192.06 17.516 191.514 17.732 190.866 17.732ZM202.45 38.324C201.034 38.228 199.72 37.85 198.508 37.19C197.296 36.53 196.42 35.624 195.88 34.472L199.678 32.834C199.894 33.206 200.29 33.584 200.866 33.968C201.454 34.34 202.144 34.526 202.936 34.526C203.596 34.526 204.196 34.388 204.736 34.112C205.288 33.824 205.564 33.38 205.564 32.78C205.564 32.348 205.408 32.012 205.096 31.772C204.796 31.532 204.424 31.352 203.98 31.232C203.536 31.112 203.104 31.004 202.684 30.908C201.544 30.68 200.482 30.326 199.498 29.846C198.526 29.366 197.74 28.742 197.14 27.974C196.54 27.194 196.24 26.264 196.24 25.184C196.24 23.996 196.552 22.97 197.176 22.106C197.812 21.23 198.64 20.558 199.66 20.09C200.68 19.622 201.778 19.388 202.954 19.388C204.382 19.388 205.69 19.688 206.878 20.288C208.078 20.876 209.026 21.704 209.722 22.772L206.176 24.878C205.924 24.47 205.534 24.104 205.006 23.78C204.49 23.456 203.932 23.27 203.332 23.222C202.528 23.186 201.844 23.312 201.28 23.6C200.728 23.888 200.452 24.38 200.452 25.076C200.452 25.52 200.626 25.85 200.974 26.066C201.334 26.282 201.766 26.45 202.27 26.57C202.774 26.678 203.248 26.804 203.692 26.948C204.748 27.296 205.738 27.722 206.662 28.226C207.586 28.73 208.33 29.354 208.894 30.098C209.47 30.83 209.74 31.706 209.704 32.726C209.704 33.89 209.356 34.91 208.66 35.786C207.976 36.662 207.076 37.328 205.96 37.784C204.856 38.24 203.686 38.42 202.45 38.324ZM222.469 24.5H219.013V38H214.513V24.5H211.885V20H214.513V14.348H219.013V20H222.469V24.5Z" fill="#5C55E5"/>
<path d="M15 43.25H30C34.125 43.25 37.5 39.875 37.5 35.75V15.125C37.5 11.375 34.875 8.375 31.3125 7.8125C30.5625 6.5 29.25 5.75 27.75 5.75H17.25C15.75 5.75 14.4375 6.5 13.6875 7.8125C10.125 8.375 7.5 11.375 7.5 15.125V35.75C7.5 39.875 10.875 43.25 15 43.25ZM16.875 9.6875C16.875 9.6875 17.0625 9.5 17.25 9.5H27.9375L28.125 9.6875V11C28.125 11.1875 27.9375 11.375 27.75 11.375H17.25C17.0625 11.375 16.875 11.1875 16.875 11V9.6875ZM11.25 15.125C11.25 13.625 12 12.5 13.125 11.75V11.9375C13.125 12.125 13.3125 12.3125 13.3125 12.5C13.3125 12.5 13.3125 12.6875 13.5 12.6875C13.5 12.875 13.6875 13.0625 13.6875 13.0625L13.875 13.25C13.875 13.4375 14.0625 13.4375 14.25 13.625L14.4375 13.8125L14.8125 14.1875L15 14.375C15.1875 14.375 15.1875 14.5625 15.375 14.5625C15.375 14.5625 15.5625 14.5625 15.5625 14.75C15.75 14.75 15.9375 14.9375 16.125 14.9375H16.3125C16.6875 15.125 16.875 15.125 17.25 15.125H28.875C29.0625 15.125 29.25 15.125 29.4375 14.9375C29.4375 14.9375 29.625 14.9375 29.625 14.75C29.8125 14.75 29.8125 14.5625 30 14.5625L30.1875 14.375C30.375 14.375 30.375 14.1875 30.5625 14L30.75 13.8125L31.125 13.4375L31.3125 13.25C31.3125 13.0625 31.5 13.0625 31.5 12.875C31.5 12.875 31.5 12.6875 31.6875 12.6875C31.6875 12.5 31.875 12.3125 31.875 12.125V11.9375C33 12.5 33.75 13.8125 33.75 15.3125V35.9375C33.75 38 32.0625 39.6875 30 39.6875H15C12.9375 39.6875 11.25 38 11.25 35.9375V15.125Z" fill="#5C55E5"/>
<path d="M16.875 32H20.625C21.75 32 22.5 31.25 22.5 30.125C22.5 29 21.75 28.25 20.625 28.25H16.875C15.75 28.25 15 29 15 30.125C15 31.25 15.75 32 16.875 32ZM16.875 24.5H28.125C29.25 24.5 30 23.75 30 22.625C30 21.5 29.25 20.75 28.125 20.75H16.875C15.75 20.75 15 21.5 15 22.625C15 23.75 15.75 24.5 16.875 24.5Z" fill="#5C55E5"/>
</svg>
